<svg aria-hidden="true" style="position: absolute; width: 0; height: 0; overflow: hidden;" version="1.1" xmlns="http://www.w3.org/2000/svg" xmlns:xlink="http://www.w3.org/1999/xlink">
  <defs>
    <symbol id="icon-settings" viewBox="0 0 24 28">
      <path d="M16 14c0-2.203-1.797-4-4-4s-4 1.797-4 4 1.797 4 4 4 4-1.797 4-4zM24 12.297v3.469c0 0.234-0.187 0.516-0.438 0.562l-2.891 0.438c-0.172 0.5-0.359 0.969-0.609 1.422 0.531 0.766 1.094 1.453 1.672 2.156 0.094 0.109 0.156 0.25 0.156 0.391s-0.047 0.25-0.141 0.359c-0.375 0.5-2.484 2.797-3.016 2.797-0.141 0-0.281-0.063-0.406-0.141l-2.156-1.687c-0.453 0.234-0.938 0.438-1.422 0.594-0.109 0.953-0.203 1.969-0.453 2.906-0.063 0.25-0.281 0.438-0.562 0.438h-3.469c-0.281 0-0.531-0.203-0.562-0.469l-0.438-2.875c-0.484-0.156-0.953-0.344-1.406-0.578l-2.203 1.672c-0.109 0.094-0.25 0.141-0.391 0.141s-0.281-0.063-0.391-0.172c-0.828-0.75-1.922-1.719-2.578-2.625-0.078-0.109-0.109-0.234-0.109-0.359 0-0.141 0.047-0.25 0.125-0.359 0.531-0.719 1.109-1.406 1.641-2.141-0.266-0.5-0.484-1.016-0.641-1.547l-2.859-0.422c-0.266-0.047-0.453-0.297-0.453-0.562v-3.469c0-0.234 0.187-0.516 0.422-0.562l2.906-0.438c0.156-0.5 0.359-0.969 0.609-1.437-0.531-0.75-1.094-1.453-1.672-2.156-0.094-0.109-0.156-0.234-0.156-0.375s0.063-0.25 0.141-0.359c0.375-0.516 2.484-2.797 3.016-2.797 0.141 0 0.281 0.063 0.406 0.156l2.156 1.672c0.453-0.234 0.938-0.438 1.422-0.594 0.109-0.953 0.203-1.969 0.453-2.906 0.063-0.25 0.281-0.438 0.562-0.438h3.469c0.281 0 0.531 0.203 0.562 0.469l0.438 2.875c0.484 0.156 0.953 0.344 1.406 0.578l2.219-1.672c0.094-0.094 0.234-0.141 0.375-0.141s0.281 0.063 0.391 0.156c0.828 0.766 1.922 1.734 2.578 2.656 0.078 0.094 0.109 0.219 0.109 0.344 0 0.141-0.047 0.25-0.125 0.359-0.531 0.719-1.109 1.406-1.641 2.141 0.266 0.5 0.484 1.016 0.641 1.531l2.859 0.438c0.266 0.047 0.453 0.297 0.453 0.562z"></path>
    </symbol>
    <symbol id="icon-sport" viewBox="0 0 24 24">
      <path d="M9.891 19.359l-6.984-1.359 0.375-2.016 4.922 0.984 1.594-8.109-1.828 0.703v3.422h-1.969v-4.688l5.203-2.203q0.141 0 0.398-0.047t0.398-0.047q0.984 0 1.688 0.984l0.984 1.594q1.359 2.391 4.313 2.391v2.016q-3.328 0-5.484-2.484l-0.609 3 2.109 1.969v7.5h-2.016v-6l-2.109-1.969zM13.5 5.484q-0.797 0-1.406-0.609t-0.609-1.406 0.609-1.383 1.406-0.586 1.383 0.586 0.586 1.383-0.586 1.406-1.383 0.609z"></path>
    </symbol>
    <symbol id="icon-social" viewBox="0 0 24 32">
      <path d="M12 16c-6.625 0-12 5.375-12 12 0 2.211 1.789 4 4 4h16c2.211 0 4-1.789 4-4 0-6.625-5.375-12-12-12zM6 6c0-3.314 2.686-6 6-6s6 2.686 6 6c0 3.314-2.686 6-6 6s-6-2.686-6-6z"></path>
    </symbol>
    <symbol id="icon-education" viewBox="0 0 32 32">
      <path d="M28 4v26h-21c-1.657 0-3-1.343-3-3s1.343-3 3-3h19v-24h-20c-2.2 0-4 1.8-4 4v24c0 2.2 1.8 4 4 4h24v-28h-2z"></path>
      <path d="M7.002 26v0c-0.001 0-0.001 0-0.002 0-0.552 0-1 0.448-1 1s0.448 1 1 1c0.001 0 0.001-0 0.002-0v0h18.997v-2h-18.997z"></path>
    </symbol>
    <symbol id="icon-bell" viewBox="0 0 32 32">
      <path d="M32.047 25c0-9-8-7-8-14 0-0.58-0.056-1.076-0.158-1.498-0.526-3.532-2.88-6.366-5.93-7.23 0.027-0.123 0.041-0.251 0.041-0.382 0-1.040-0.9-1.891-2-1.891s-2 0.851-2 1.891c0 0.131 0.014 0.258 0.041 0.382-3.421 0.969-5.966 4.416-6.039 8.545-0.001 0.060-0.002 0.121-0.002 0.183 0 7-8 5-8 14 0 2.382 5.331 4.375 12.468 4.878 0.673 1.263 2.002 2.122 3.532 2.122s2.86-0.86 3.532-2.122c7.137-0.503 12.468-2.495 12.468-4.878 0-0.007-0.001-0.014-0.001-0.021l0.048 0.021zM25.82 26.691c-1.695 0.452-3.692 0.777-5.837 0.958-0.178-2.044-1.893-3.648-3.984-3.648s-3.805 1.604-3.984 3.648c-2.144-0.18-4.142-0.506-5.837-0.958-2.332-0.622-3.447-1.318-3.855-1.691 0.408-0.372 1.523-1.068 3.855-1.691 2.712-0.724 6.199-1.122 9.82-1.122s7.109 0.398 9.82 1.122c2.332 0.622 3.447 1.318 3.855 1.691-0.408 0.372-1.523 1.068-3.855 1.691z"></path>
    </symbol>
    <symbol id="icon-calendar" viewBox="0 0 20 20">
      <path d="M17 3h-1v2h-3v-2h-6v2h-3v-2h-1c-1.101 0-2 0.9-2 2v12c0 1.1 0.899 2 2 2h14c1.1 0 2-0.9 2-2v-12c0-1.1-0.9-2-2-2zM17 17h-14v-8h14v8zM6.5 1h-2v3.5h2v-3.5zM15.5 1h-2v3.5h2v-3.5z"></path>
    </symbol>
    <symbol id="icon-entertainment" viewBox="0 0 20 20">
      <path d="M19.444 9.361c-0.882-4.926-2.854-6.379-3.903-6.379-1.637 0-2.057 1.217-5.541 1.258-3.484-0.041-3.904-1.258-5.541-1.258-1.049 0-3.022 1.453-3.904 6.379-0.503 2.812-1.049 7.010 0.252 7.514 1.619 0.627 2.168-0.941 3.946-2.266 1.805-1.343 2.671-1.659 5.247-1.659s3.442 0.316 5.247 1.659c1.778 1.324 2.327 2.893 3.946 2.266 1.301-0.504 0.755-4.701 0.251-7.514zM6 10c-1.105 0-2-0.896-2-2s0.895-2 2-2 2 0.895 2 2c0 1.104-0.896 2-2 2zM13 10c-0.553 0-1-0.447-1-1s0.447-1 1-1c0.553 0 1 0.447 1 1s-0.447 1-1 1zM15 8c-0.553 0-1-0.447-1-1s0.447-1 1-1c0.553 0 1 0.447 1 1s-0.447 1-1 1z"></path>
    </symbol>
    <symbol id="icon-run" viewBox="0 0 32 32">
      <path d="M5 11v14.999c0 1.099 0.893 2.001 1.994 2.001h14.006v-6.002c0-1.111 0.898-1.998 2.006-1.998h4.994v-9h-23zM5 10v-2.999c0-1.105 0.902-2.001 2.001-2.001h18.998c1.105 0 2.001 0.893 2.001 1.992v3.008h-23zM22 28v-5.997c0-0.554 0.451-1.003 0.991-1.003h5.009l-6 7z"></path>
    </symbol>
    <symbol id="icon-unset" viewBox="0 0 32 32">
      <path d="M5 11v14.999c0 1.099 0.893 2.001 1.994 2.001h14.006v-6.002c0-1.111 0.898-1.998 2.006-1.998h4.994v-9h-23zM5 10v-2.999c0-1.105 0.902-2.001 2.001-2.001h18.998c1.105 0 2.001 0.893 2.001 1.992v3.008h-23zM22 28v-5.997c0-0.554 0.451-1.003 0.991-1.003h5.009l-6 7z"></path>
    </symbol>
    <symbol id="icon-work" viewBox="0 0 20 20">
      <path d="M9 10h2v2h9c0 0-0.149-4.459-0.2-5.854-0.050-1.326-0.525-2.146-2-2.146h-3.208c-0.497-0.938-1.032-1.945-1.197-2.256-0.331-0.623-0.444-0.744-1.179-0.744h-4.433c-0.735 0-0.847 0.121-1.179 0.744-0.165 0.311-0.7 1.318-1.196 2.256h-3.209c-1.476 0-1.945 0.82-2 2.146s-0.199 5.854-0.199 5.854h9v-2zM7.649 2.916c0.23-0.432 0.308-0.516 0.817-0.516h3.067c0.509 0 0.588 0.084 0.816 0.516 0.086 0.16 0.318 0.6 0.575 1.084h-5.85c0.257-0.484 0.489-0.924 0.575-1.084zM11 15h-2v-2h-8.5c0 0 0.124 1.797 0.199 3.322 0.031 0.633 0.218 1.678 1.8 1.678h15.001c1.582 0 1.765-1.047 1.8-1.678 0.087-1.568 0.2-3.322 0.2-3.322h-8.5v2z"></path>
    </symbol>
  </defs>
</svg>